<?xml version="1.0"?>
<svg xmlns="http://www.w3.org/2000/svg" xmlns:xlink="http://www.w3.org/1999/xlink" version="1.1" id="Capa_1" x="0px" y="0px" viewBox="0 0 512 512" style="enable-background:new 0 0 512 512;" xml:space="preserve" width="512px" height="512px" class=""><g><g>
	<g>
		<path d="M511.884,313.14l-24.801-198.404c-3.869-30.958-27.401-56.588-58.556-63.777l-88.456-20.413    c-1.086-3.174-2.517-6.264-4.334-9.204C327.479,7.978,313.169,0,297.459,0h-82.918c-15.71,0-30.02,7.978-38.279,21.342    c-1.817,2.94-3.248,6.03-4.334,9.204L83.473,50.959c-30.54,7.047-53.669,32.677-57.547,63.703L0.125,313.066    c-0.556,4.279,0.757,8.591,3.605,11.833C6.578,328.142,10.685,330,15,330h103.325L91.2,494.561    c-0.716,4.346,0.514,8.787,3.364,12.145C97.414,510.064,101.595,512,106,512h300c4.405,0,8.586-1.936,11.437-5.294    c2.85-3.358,4.08-7.799,3.364-12.145L393.675,330H497c4.303,0,8.398-1.847,11.245-5.073    C511.093,321.702,512.418,317.409,511.884,313.14z M201.781,37.114c1.322-2.139,5.212-7.114,12.76-7.114h82.918    c7.548,0,11.438,4.975,12.76,7.114c1.322,2.139,4.032,7.843,0.657,14.595L256,161.459l-54.876-109.75    C197.749,44.957,200.46,39.253,201.781,37.114z M103.534,120.204c-8.172,1.362-13.692,9.09-12.33,17.262L118.293,300H32.077    l23.608-181.544c2.332-18.66,16.21-34.038,34.534-38.266l82.353-19.005c0.515,1.328,1.073,2.646,1.72,3.939l68.292,136.583    L291.73,300H148.707l-27.911-167.466C119.435,124.363,111.71,118.843,103.534,120.204z M301,482H123.675l25.055-152h131.057    l-64.394,64.394c-5.858,5.858-5.858,15.355,0,21.213c5.857,5.857,15.355,5.858,21.213,0L301,351.213V482z M331,482V330h32.27    l25.055,152H331z M394.297,300l26.412-132.058c1.625-8.124-3.644-16.026-11.767-17.65c-8.121-1.625-16.026,3.644-17.65,11.767    L363.703,300H325.27l-52.5-105l64.938-129.875c0.646-1.293,1.205-2.611,1.72-3.939l82.353,19.005    c18.643,4.302,33.255,20.038,35.533,38.266L480.009,300H394.297z" data-original="#000000" class="active-path" data-old_color="#000000" fill="#3D72BF"/>
	</g>
</g></g> </svg>
