<?xml version="1.0"?>
<svg xmlns="http://www.w3.org/2000/svg" xmlns:xlink="http://www.w3.org/1999/xlink" version="1.1" id="Capa_1" x="0px" y="0px" viewBox="0 0 512 512" style="enable-background:new 0 0 512 512;" xml:space="preserve" width="512px" height="512px"><g><g>
	<g>
		<path d="M503.616,340.789c-3.995-1.964-7.863-4.435-11.498-7.343c-26.924-21.539-61.435-25.393-91.087-11.594l-66.508-66.509    c31.45-1.831,56.476-27.988,56.476-59.887c0-33.084-26.916-59.999-59.999-59.999c-31.901,0-58.056,25.027-59.887,56.476    l-41.476-41.476l58.181-58.182c17.589-17.588,17.592-46.043,0-63.634c-17.544-17.545-46.09-17.545-63.634,0l-89.999,89.999    c-17.589,17.588-17.592,46.043,0,63.634l49.392,49.393L98.503,316.74c-26.112-7.084-54.333-1.524-77.121,16.705    c-3.998,3.198-8.268,5.86-12.692,7.913c-7.515,3.487-10.78,12.405-7.294,19.92c3.487,7.515,12.404,10.781,19.92,7.294    c6.604-3.064,12.932-7,18.807-11.701c21.609-17.288,50.647-17.289,72.258,0c32.684,26.148,75.931,26.247,108.74,0    c21.644-17.315,49.613-17.315,71.258,0c32.684,26.148,75.931,26.247,108.74,0c21.609-17.289,50.647-17.288,72.257,0    c5.333,4.268,11.054,7.915,17.003,10.839c7.434,3.656,16.424,0.591,20.079-6.842C514.113,353.434,511.05,344.444,503.616,340.789z     M331,165.457c16.542,0,30,13.458,30,30c0,16.542-13.458,30-30,30s-30-13.458-30-30C301,178.915,314.458,165.457,331,165.457z     M311.12,333.446c-16.059-12.847-34.859-19.637-54.37-19.637s-38.311,6.79-54.37,19.637c-21.645,17.315-49.614,17.315-71.258,0    c-1.292-1.034-2.608-2.012-3.934-2.965l88.208-88.208c5.858-5.858,5.858-15.355,0-21.213l-59.999-59.999    c-5.864-5.865-5.866-15.343,0-21.209l89.999-89.999c5.866-5.865,15.343-5.865,21.209,0c5.865,5.865,5.866,15.342,0,21.209    l-68.788,68.788c-5.858,5.858-5.858,15.355,0,21.213l177.362,177.362C354.78,350.548,330.433,348.897,311.12,333.446z" data-original="#000000" class="active-path" data-old_color="#000000" fill="#3D72BF"/>
	</g>
</g><g>
	<g>
		<path d="M503.616,400.788c-3.995-1.964-7.863-4.435-11.498-7.343c-32.82-26.256-76.921-26.255-109.739,0    c-21.645,17.315-49.614,17.315-71.258,0c-16.059-12.847-34.859-19.637-54.37-19.637s-38.311,6.79-54.37,19.637    c-21.645,17.315-49.614,17.315-71.258,0c-32.819-26.256-76.919-26.256-109.74,0c-3.998,3.198-8.268,5.86-12.692,7.913    c-7.515,3.487-10.78,12.405-7.294,19.92c3.487,7.515,12.404,10.781,19.92,7.294c6.604-3.064,12.932-7,18.807-11.701    c21.609-17.288,50.647-17.288,72.258,0c32.684,26.148,75.931,26.247,108.74,0c21.644-17.315,49.613-17.315,71.258,0    c32.684,26.148,75.931,26.247,108.74,0c21.609-17.288,50.647-17.288,72.257,0c5.333,4.268,11.054,7.915,17.003,10.839    c7.434,3.656,16.424,0.591,20.079-6.842C514.113,413.433,511.05,404.443,503.616,400.788z" data-original="#000000" class="active-path" data-old_color="#000000" fill="#3D72BF"/>
	</g>
</g><g>
	<g>
		<path d="M503.616,460.787c-3.995-1.964-7.863-4.435-11.498-7.343c-32.82-26.256-76.921-26.255-109.739,0    c-21.645,17.315-49.614,17.315-71.258,0c-16.059-12.847-34.859-19.637-54.37-19.637s-38.311,6.79-54.37,19.637    c-21.645,17.315-49.614,17.315-71.258,0c-32.819-26.256-76.919-26.255-109.74,0c-3.998,3.198-8.268,5.86-12.692,7.913    c-7.515,3.487-10.78,12.405-7.294,19.92c3.487,7.515,12.404,10.781,19.92,7.294c6.604-3.064,12.932-7,18.807-11.701    c21.609-17.288,50.647-17.289,72.258,0c32.684,26.148,75.931,26.247,108.74,0c21.644-17.315,49.613-17.315,71.258,0    c32.684,26.148,75.931,26.247,108.74,0c21.609-17.288,50.647-17.288,72.257,0c5.333,4.268,11.054,7.915,17.003,10.839    c7.434,3.656,16.424,0.591,20.079-6.842C514.113,473.432,511.05,464.442,503.616,460.787z" data-original="#000000" class="active-path" data-old_color="#000000" fill="#3D72BF"/>
	</g>
</g></g> </svg>
