<?xml version="1.0"?>
<svg xmlns="http://www.w3.org/2000/svg" xmlns:xlink="http://www.w3.org/1999/xlink" version="1.1" id="Layer_1" x="0px" y="0px" viewBox="0 0 512 512" style="enable-background:new 0 0 512 512;" xml:space="preserve" width="512px" height="512px"><g><g>
	<path d="M296.606,236.606l-21.213-21.213c-10.693,10.693-28.094,10.693-38.787,0l-21.213,21.213   c10.846,10.847,25.267,16.82,40.606,16.82S285.76,247.453,296.606,236.606z" data-original="#000000" class="active-path" data-old_color="#000000" fill="#3D72BF"/>
	<path d="M390.825,371.14C388.31,332.043,355.721,301,316,301h-15v-10.145c35.443-16.882,60-53.053,60-94.855v-25.035   c19.39-21.571,30-49.165,30-78.392V75c0-41.355-33.645-75-75-75H196c-41.355,0-75,33.645-75,75v10.499   c0,33.457,10.625,66.552,30,93.786V196c0,41.802,24.557,77.973,60,94.855V301h-15c-39.721,0-72.31,31.043-74.825,70.14   C63.165,380.678,0,399.458,0,436c0,24.277,27.622,43.611,82.098,57.464C129.104,505.417,190.863,512,256,512   s126.896-6.583,173.902-18.536C484.378,479.611,512,460.277,512,436C512,399.458,448.835,380.678,390.825,371.14z M361,75v17.574   c0,19.004-6.021,37.081-17.164,52.054l-75.761-56.821l54.008-57.384C344.028,33.403,361,52.251,361,75z M151,75   c0-24.813,20.187-45,45-45h85.284L168.086,150.272C157,130.598,151,108.154,151,85.499V75z M181,196v-15.677l66.385-70.534   L331,172.5V196c0,41.355-33.645,75-75,75S181,237.355,181,196z M151,376c0-24.813,20.187-45,45-45h45v-31.076   c4.901,0.704,9.907,1.076,15,1.076s10.099-0.372,15-1.076V331h45c24.813,0,45,20.187,45,45v38.854   c-9.704,1.207-19.734,2.237-30,3.096V361H181v56.949c-10.266-0.858-20.296-1.889-30-3.096V376z M301,419.917   C286.24,420.63,271.172,421,256,421s-30.24-0.37-45-1.083V391h90V419.917z M470.321,446.616C424.668,473.744,318.715,482,256,482   c-62.844,0-168.765-8.314-214.321-35.384C32.078,440.911,30,436.729,30,436c0-0.063,1.818-7.126,24.397-16.59   c16.671-6.987,39.479-13.064,66.603-17.8v39.351c36.996,5.351,75.85,10.04,135,10.04c55.33,0,93.548-4.045,135-10.04v-39.351   c27.124,4.736,49.932,10.813,66.603,17.8C480.182,428.874,482,435.937,482,436C482,436.729,479.922,440.911,470.321,446.616z" data-original="#000000" class="active-path" data-old_color="#000000" fill="#3D72BF"/>
</g></g> </svg>
