<?xml version="1.0"?>
<svg xmlns="http://www.w3.org/2000/svg" height="512px" viewBox="0 -8 480 480" width="512px"><g><path d="m152 216.082031c-35.347656 0-64 28.65625-64 64 0 35.347657 28.652344 64 64 64s64-28.652343 64-64c-.039062-35.328125-28.671875-63.960937-64-64zm0 112c-26.507812 0-48-21.488281-48-48 0-26.507812 21.492188-48 48-48s48 21.492188 48 48c-.027344 26.5-21.5 47.972657-48 48zm0 0" data-original="#000000" class="active-path" data-old_color="#000000" fill="#3D72BF"/><path d="m152 240.082031c-22.089844 0-40 17.910157-40 40 0 22.09375 17.910156 40 40 40s40-17.90625 40-40c-.027344-22.078125-17.917969-39.972656-40-40zm8 62.527344v-6.527344h-16v6.527344c-6.777344-2.417969-12.109375-7.75-14.527344-14.527344h6.527344v-16h-6.527344c2.417969-6.773437 7.75-12.105469 14.527344-14.527343v6.527343h16v-6.527343c6.777344 2.421874 12.109375 7.753906 14.527344 14.527343h-6.527344v16h6.527344c-2.417969 6.777344-7.75 12.109375-14.527344 14.527344zm0 0" data-original="#000000" class="active-path" data-old_color="#000000" fill="#3D72BF"/><path d="m272 184.082031h-8v-16c0-4.417969-3.582031-8-8-8h-216c-4.417969 0-8 3.582031-8 8v224c0 4.417969 3.582031 8 8 8h216c4.417969 0 8-3.582031 8-8v-16h8c4.417969 0 8-3.582031 8-8v-56c0-4.417969-3.582031-8-8-8h-8v-48h8c4.417969 0 8-3.582031 8-8v-56c0-4.417969-3.582031-8-8-8zm-8 176h-24v-40h24zm-16-56h-16c-4.417969 0-8 3.582031-8 8v56c0 4.417969 3.582031 8 8 8h16v8h-200v-208h200v8h-16c-4.417969 0-8 3.582031-8 8v56c0 4.417969 3.582031 8 8 8h16zm16-64h-24v-40h24zm0 0" data-original="#000000" class="active-path" data-old_color="#000000" fill="#3D72BF"/><path d="m344 296.082031h-16c0 13.253907 10.746094 24 24 24v8h16v-8c13.253906 0 24-10.746093 24-24 0-13.253906-10.746094-24-24-24v-16c4.417969 0 8 3.582031 8 8h16c0-13.253906-10.746094-24-24-24v-8h-16v8c-13.253906 0-24 10.746094-24 24 0 13.253907 10.746094 24 24 24v16c-4.417969 0-8-3.582031-8-8zm0-32c0-4.417969 3.582031-8 8-8v16c-4.417969 0-8-3.582031-8-8zm24 24c4.417969 0 8 3.582031 8 8s-3.582031 8-8 8zm0 0" data-original="#000000" class="active-path" data-old_color="#000000" fill="#3D72BF"/><path d="m472 184.082031h-168v-32c0-13.253906-10.746094-24-24-24h-82.847656c23.785156-19.148437 32.90625-51.21875 22.75-80.019531-10.152344-28.800781-37.367188-48.0625-67.902344-48.0625s-57.75 19.261719-67.902344 48.0625c-10.15625 28.800781-1.035156 60.871094 22.75 80.019531h-82.847656c-13.253906 0-24 10.746094-24 24v256c0 13.253907 10.746094 24 24 24h8v24c0 4.417969 3.582031 8 8 8h48c4.417969 0 8-3.582031 8-8v-24h112v24c0 4.417969 3.582031 8 8 8h48c4.417969 0 8-3.582031 8-8v-24h8c13.253906 0 24-10.746093 24-24v-32h168c4.417969 0 8-3.582031 8-8v-176c0-4.417969-3.582031-8-8-8zm-8 16v22.992188c-11.261719-2.933594-20.054688-11.730469-22.984375-22.992188zm-368-128c0-30.925781 25.070312-56 56-56s56 25.074219 56 56c0 30.929688-25.070312 56-56 56-30.914062-.035156-55.964844-25.085937-56-56zm-16 376h-32v-16h32zm176 0h-32v-16h32zm32-40c0 4.417969-3.582031 8-8 8h-256c-4.417969 0-8-3.582031-8-8v-256c0-4.417969 3.582031-8 8-8h256c4.417969 0 8 3.582031 8 8zm16-82.847656c19.148438 23.785156 51.222656 32.90625 80.019531 22.753906 28.800781-10.152343 48.0625-37.367187 48.0625-67.90625 0-30.535156-19.261719-57.75-48.0625-67.902343-28.796875-10.152344-60.871093-1.035157-80.019531 22.75v-34.847657h120.71875c3.4375 20.101563 19.179688 35.84375 39.28125 39.28125v81.441407c-20.101562 3.433593-35.84375 19.179687-39.28125 39.277343h-120.71875zm0-45.152344c0-30.925781 25.070312-56 56-56s56 25.074219 56 56c0 30.929688-25.070312 56-56 56-30.914062-.035156-55.964844-25.085937-56-56zm160 80h-22.984375c2.929687-11.261719 11.722656-20.054687 22.984375-22.992187zm0 0" data-original="#000000" class="active-path" data-old_color="#000000" fill="#3D72BF"/><path d="m168 56.082031h16c0-13.253906-10.746094-24-24-24v-8h-16v8c-13.253906 0-24 10.746094-24 24 0 13.253907 10.746094 24 24 24v16c-4.417969 0-8-3.582031-8-8h-16c0 13.253907 10.746094 24 24 24v8h16v-8c13.253906 0 24-10.746093 24-24 0-13.253906-10.746094-24-24-24v-16c4.417969 0 8 3.582031 8 8zm0 32c0 4.417969-3.582031 8-8 8v-16c4.417969 0 8 3.582031 8 8zm-24-24c-4.417969 0-8-3.582031-8-8s3.582031-8 8-8zm0 0" data-original="#000000" class="active-path" data-old_color="#000000" fill="#3D72BF"/></g> </svg>
