<?xml version="1.0"?>
<svg xmlns="http://www.w3.org/2000/svg" height="512px" viewBox="-32 0 512 512" width="512px"><g><path d="m341.332031 405.332031h-74.664062c-5.890625 0-10.667969 4.78125-10.667969 10.667969v74.667969h-234.667969v-469.335938h320v85.335938h21.335938v-85.335938c0-11.765625-9.570313-21.332031-21.335938-21.332031h-320c-11.765625 0-21.332031 9.566406-21.332031 21.332031v469.335938c0 11.765625 9.566406 21.332031 21.332031 21.332031h277.335938c2.824219 0 5.546875-1.121094 7.539062-3.125l53.335938-53.332031c2.003906-1.996094 3.125-4.714844 3.125-7.542969v-64h-21.335938zm0 38.253907-47.082031 47.082031h-16.917969v-64h64zm0 0" data-original="#000000" class="active-path" data-old_color="#000000" fill="#3D72BF"/><path d="m298.667969 149.332031v-53.332031c0-5.886719-4.78125-10.667969-10.667969-10.667969h-213.332031c-5.890625 0-10.667969 4.78125-10.667969 10.667969v128c0 5.886719 4.777344 10.667969 10.667969 10.667969h192v-21.335938h-181.335938v-106.664062h192v42.664062zm0 0" data-original="#000000" class="active-path" data-old_color="#000000" fill="#3D72BF"/><path d="m64 277.332031h106.667969v21.335938h-106.667969zm0 0" data-original="#000000" class="active-path" data-old_color="#000000" fill="#3D72BF"/><path d="m192 277.332031h64v21.335938h-64zm0 0" data-original="#000000" class="active-path" data-old_color="#000000" fill="#3D72BF"/><path d="m64 341.332031h64v21.335938h-64zm0 0" data-original="#000000" class="active-path" data-old_color="#000000" fill="#3D72BF"/><path d="m149.332031 341.332031h85.335938v21.335938h-85.335938zm0 0" data-original="#000000" class="active-path" data-old_color="#000000" fill="#3D72BF"/><path d="m64 405.332031h106.667969v21.335938h-106.667969zm0 0" data-original="#000000" class="active-path" data-old_color="#000000" fill="#3D72BF"/><path d="m192 405.332031h42.667969v21.335938h-42.667969zm0 0" data-original="#000000" class="active-path" data-old_color="#000000" fill="#3D72BF"/><path d="m425.289062 300.203125-18.621093-111.710937c-1.707031-10.328126-10.5625-17.824219-21.035157-17.824219h-1.632812v-10.667969c0-17.644531-14.355469-32-32-32s-32 14.355469-32 32v10.667969h-1.632812c-10.472657 0-19.328126 7.496093-21.042969 17.824219l-18.625 111.710937c-13.089844 4.011719-22.699219 16.074219-22.699219 30.464844 0 17.640625 14.355469 32 32 32h74.667969v-21.335938h-74.667969c-5.878906 0-10.667969-4.789062-10.667969-10.664062 0-5.878907 4.789063-10.667969 10.667969-10.667969h128c5.878906 0 10.667969 4.789062 10.667969 10.667969 0 5.875-4.789063 10.664062-10.667969 10.664062h-32v21.335938h32c17.644531 0 32-14.359375 32-32 0-14.390625-9.609375-26.453125-22.710938-30.464844zm-83.957031-140.203125c0-5.878906 4.789063-10.667969 10.667969-10.667969s10.667969 4.789063 10.667969 10.667969v10.667969h-21.335938zm-40.734375 138.667969 17.78125-106.667969h67.253906l17.78125 106.667969zm0 0" data-original="#000000" class="active-path" data-old_color="#000000" fill="#3D72BF"/></g> </svg>
