<svg xmlns="http://www.w3.org/2000/svg" width="232" height="48" viewBox="0 0 232.2 48" class="undefined"><style>.a{fill:#FF8300;}.b{fill:#FFF;}</style><path d="M169.6 27.9c-1.3 0-2.4 1.1-2.4 2.4 0 1.3 1.1 2.4 2.4 2.4s2.4-1.1 2.4-2.4C172 28.9 170.9 27.9 169.6 27.9zM19.8 5.2C9.4 5.2 1 13.6 1 24c0 10.4 8.4 18.8 18.8 18.8 10.4 0 18.8-8.4 18.8-18.8C38.7 13.6 30.2 5.2 19.8 5.2zM223.9 15.3c-2 0-3.8 0.8-5.1 2.3l-0.1 0.2 -0.1-0.2c-1.2-1.5-3.1-2.3-5.2-2.3 -4.3 0-7.3 3-7.3 7.4V32h4v-9.4c0-2 1.6-3.4 3.6-3.4 2.9 0 3.4 2.4 3.4 3.4V32h3v-9.4c0-2 1.6-3.4 3.6-3.4 3.1 0 3.4 2.6 3.4 3.4V32h4v-9.3C231 18.2 228.2 15.3 223.9 15.3zM196.4 15.4c-4.6 0-8.4 3.9-8.4 8.7 0 4.8 3.8 8.7 8.4 8.7 4.6 0 8.4-3.9 8.4-8.7C204.9 19.3 201.1 15.4 196.4 15.4zM196.4 28.8c-2.5 0-4.6-2.1-4.6-4.8 0-2.6 2.1-4.8 4.6-4.8 2.5 0 4.6 2.1 4.6 4.8C201 26.7 199 28.8 196.4 28.8zM180 29.2c-2.4 0-4.4-2.3-4.4-5.1 0-2.9 2-5.2 4.4-5.2 1.7 0 3 1.1 3.5 2.1h4.2c-1-4-3.9-5.7-7.7-5.7 -4.7 0-8.3 3.8-8.3 8.8 0 5 3.6 8.7 8.3 8.7 3.9 0 6.7-1.8 7.7-5.8h-4.2C182.9 28 181.4 29.2 180 29.2z" class="a"/><path d="M90.7 15.3c-2 0-3.9 0.8-5.2 2.3l-0.2 0.2 -0.2-0.2c-1.2-1.5-2.9-2.3-5-2.3 -4.3 0-7.1 3-7.1 7.4V32h4v-9.4c0-2 1.1-3.4 3.1-3.4 2.9 0 2.9 2.4 2.9 3.4V32h4v-9.4c0-2 1.6-3.4 3.5-3.4 3.1 0 3.5 2.6 3.5 3.4V32h4v-9.3C98 18.2 95 15.3 90.7 15.3zM55.8 15h-0.1c-4.9 0-8.6 3.9-8.7 8.8 -0.1 4.8 3.5 8.8 8 8.9l0.2 0c1.4 0 2.7-0.2 3.6-0.5l0.1 0 0-6.7 -0.3 0.4 -2.1 3.1 0 0c-0.3 0.1-0.7 0.1-1 0.1 -1.2 0-2.3-0.5-3.1-1.3 -0.9-1-1.5-2.5-1.5-3.8C51 21.2 53 19 55.6 19h0.1c2.6 0 4.6 2.1 4.6 4.9L60.2 32h4l0-8.1C64.3 18.8 61 15 55.8 15zM19.8 10.4c-3 0-5.9 1.1-8.3 3.1C6.4 17.9 5.7 25.4 9.9 30.3c1.5 1.7 3.1 3.1 4.3 3.6L21.4 28h-6.6l0-0.1c-2.7-3.1-2.5-7.6 0.5-10.1 1.3-1.1 3-1.8 4.7-1.8 2 0 3.9 0.9 5.2 2.4 1.2 1.4 1.8 3.1 1.7 5 -0.1 1.8-0.7 3.4-2.3 4.7 0 0-8.7 7.2-8.7 7.2l4.1 4.2 8.3-7.1c4.9-4.5 5-9.4 3.8-13.1C30.7 15.2 26.7 10.4 19.8 10.4zM66 32h4V10h-4V32zM145.1 23.7c0 2.7-2 5.3-4.6 5.3h-0.1c-2.6 0-4.6-2.2-4.6-4.9 0-1.4 0.5-2.8 1.5-3.8 0.9-0.9 1.9-1.4 3.1-1.4 0.3 0 0.7 0 1 0h0l2.1 3.1 0.3 0.4 0-6.7 -0.1-0.2c-0.9-0.3-2.2-0.7-3.6-0.7h-0.2c-4.4 0-8.2 4.1-8.2 8.9 0.1 5 4.4 8.8 8.4 8.8v0l0.4 0c4.9-0.1 8.7-4.1 8.6-9.1L149.1 9h-4L145.1 23.7zM158.8 15.4c-4.6 0-8.4 3.9-8.4 8.7 0 4.8 3.8 8.7 8.4 8.7 4.6 0 8.4-3.9 8.4-8.7C167.2 19.3 163.4 15.4 158.8 15.4zM158.8 28.8c-2.5 0-4.6-2.1-4.6-4.8 0-2.6 2.1-4.8 4.6-4.8 2.5 0 4.6 2.1 4.6 4.8C163.4 26.7 161.3 28.8 158.8 28.8zM123 15.3c-4.3 0-7 3-7 7.4V32h4v-9.4c0-2 1.1-3.4 3-3.4 3.1 0 3 2.6 3 3.4V32h4v-9.3C130 18.2 127.4 15.3 123 15.3zM110 25.5c0 2-1.6 3.4-3.5 3.4 -3.1 0-3.5-2.6-3.5-3.4V16h-3v9.4c0 4.5 2.6 7.4 7 7.4 4.3 0 7-3 7-7.4V16h-4V25.5z" class="b"/></svg>
