<svg xmlns="http://www.w3.org/2000/svg" width="512" height="512" viewBox="0 0 550.8 550.8"><path d="M515.8 61.2H35C15.7 61.2 0 76.9 0 96.2v358.5C0 473.9 15.7 489.6 35 489.6h480.9c19.3 0 35-15.7 35-35V96.2C550.8 76.9 535.1 61.2 515.8 61.2zM515.8 96.2V350.5l-68.9-62.7c-10.4-9.4-26.3-9-36.2 0.9l-69.8 69.7L203.4 194.2c-10.4-12.4-29.4-12.5-40-0.3L35 343.2V96.2H515.8zM367.2 188c0-26.6 21.5-48.1 48.1-48.1 26.6 0 48.1 21.5 48.1 48.1 0 26.6-21.5 48.1-48.1 48.1C388.7 236.1 367.2 214.5 367.2 188z" fill="#ccc"/></svg>
